<?xml version="1.0" encoding="utf-8"?>
<!-- Generator: Adobe Illustrator 16.0.3, SVG Export Plug-In . SVG Version: 6.00 Build 0)  -->
<!DOCTYPE svg PUBLIC "-//W3C//DTD SVG 1.1//EN" "http://www.w3.org/Graphics/SVG/1.1/DTD/svg11.dtd">
<svg version="1.1"
	 id="Logo" xmlns:cc="http://creativecommons.org/ns#" xmlns:svg="http://www.w3.org/2000/svg" xmlns:sodipodi="http://sodipodi.sourceforge.net/DTD/sodipodi-0.dtd" xmlns:dc="http://purl.org/dc/elements/1.1/" xmlns:rdf="http://www.w3.org/1999/02/22-rdf-syntax-ns#" xmlns:inkscape="http://www.inkscape.org/namespaces/inkscape" sodipodi:docname="logonew.svg" inkscape:version="0.48.4 r9939"
	 xmlns="http://www.w3.org/2000/svg" xmlns:xlink="http://www.w3.org/1999/xlink" x="0px" y="0px" width="198.425px"
	 height="99.213px" viewBox="0 0 198.425 99.213" enable-background="new 0 0 198.425 99.213" xml:space="preserve">
<sodipodi:namedview  inkscape:cy="54.620839" inkscape:cx="124.55441" inkscape:zoom="6.6624335" showgrid="false" guidetolerance="10" gridtolerance="10" objecttolerance="10" borderopacity="1" bordercolor="#666666" id="namedview3105" pagecolor="#ffffff" inkscape:current-layer="text3111" inkscape:window-maximized="1" inkscape:window-y="-8" inkscape:window-x="1592" inkscape:window-height="1058" inkscape:window-width="1920" inkscape:pageopacity="0" inkscape:pageshadow="2">
	</sodipodi:namedview>
<g id="g3049">
	<g id="text3111">
		<g id="g3366" transform="matrix(0.45619558,0,0,0.45619558,-124.51183,-24.971668)">
			<path id="path3368" inkscape:connector-curvature="0" fill="#FFFFFF" d="M349.221,217.783l-5.868-21.599h-0.073l-5.939,21.599
				h-3.564l-6.588-25.703h3.491l5.04,21.383h0.072l5.761-21.383h3.708l5.688,21.383h0.073l5.22-21.383h3.42l-6.876,25.703H349.221z"
				/>
			<path id="path3370" inkscape:connector-curvature="0" fill="#FFFFFF" d="M373.52,216.597c-1.391,1.055-3.145,1.584-5.255,1.584
				c-1.489,0-2.779-0.24-3.87-0.721c-1.092-0.477-2.01-1.152-2.754-2.014c-0.744-0.865-1.303-1.897-1.674-3.098
				c-0.372-1.201-0.582-2.507-0.63-3.924c0-1.417,0.216-2.712,0.649-3.887c0.431-1.177,1.037-2.196,1.817-3.061
				c0.779-0.863,1.704-1.535,2.772-2.016c1.067-0.477,2.237-0.719,3.51-0.719c1.657,0,3.03,0.343,4.123,1.028
				c1.092,0.683,1.967,1.554,2.628,2.609c0.659,1.055,1.115,2.207,1.368,3.455c0.252,1.248,0.354,2.438,0.306,3.564h-13.932
				c-0.024,0.818,0.073,1.591,0.288,2.323c0.216,0.732,0.563,1.381,1.045,1.944c0.478,0.563,1.092,1.013,1.836,1.351
				c0.744,0.334,1.62,0.503,2.628,0.503c1.296,0,2.358-0.3,3.186-0.901c0.828-0.599,1.374-1.511,1.638-2.736h3.025
				C375.813,213.968,374.913,215.539,373.52,216.597L373.52,216.597z M372.784,204.643c-0.276-0.646-0.649-1.205-1.116-1.674
				c-0.468-0.467-1.021-0.839-1.656-1.115c-0.636-0.276-1.338-0.413-2.106-0.413c-0.792,0-1.506,0.137-2.142,0.413
				c-0.636,0.276-1.183,0.653-1.638,1.132c-0.456,0.482-0.817,1.04-1.08,1.674c-0.264,0.638-0.421,1.314-0.469,2.036h10.693
				C373.221,205.975,373.059,205.292,372.784,204.643z"/>
			<path id="path3372" inkscape:connector-curvature="0" fill="#FFFFFF" d="M400.809,202.413c-0.768-0.649-1.8-0.972-3.096-0.972
				c-1.104,0-2.027,0.206-2.771,0.612c-0.744,0.407-1.338,0.946-1.782,1.618c-0.444,0.672-0.762,1.447-0.955,2.323
				c-0.192,0.876-0.288,1.783-0.288,2.717c0,0.865,0.103,1.704,0.306,2.522c0.204,0.816,0.522,1.541,0.955,2.177
				c0.431,0.636,0.995,1.145,1.691,1.531c0.697,0.385,1.524,0.576,2.484,0.576c1.512,0,2.694-0.396,3.546-1.188
				c0.852-0.792,1.374-1.907,1.566-3.348h3.132c-0.336,2.303-1.193,4.08-2.573,5.328c-1.381,1.248-3.258,1.873-5.634,1.873
				c-1.416,0-2.67-0.231-3.762-0.685c-1.092-0.456-2.004-1.105-2.736-1.944c-0.732-0.839-1.284-1.841-1.656-3.005
				c-0.374-1.165-0.559-2.443-0.559-3.836c0-1.391,0.18-2.693,0.541-3.905c0.36-1.212,0.906-2.269,1.638-3.168
				c0.732-0.899,1.65-1.606,2.754-2.124c1.105-0.516,2.388-0.775,3.852-0.775c1.056,0,2.046,0.126,2.97,0.379
				c0.924,0.25,1.739,0.642,2.448,1.171c0.707,0.527,1.29,1.192,1.746,1.997c0.456,0.803,0.744,1.757,0.864,2.862h-3.167
				C402.08,203.971,401.577,203.059,400.809,202.413L400.809,202.413z"/>
			<path id="path3374" inkscape:connector-curvature="0" fill="#FFFFFF" d="M411.789,199.172v3.924h0.072
				c0.744-1.511,1.656-2.627,2.736-3.348c1.08-0.719,2.448-1.055,4.104-1.008v3.241c-1.223,0-2.268,0.167-3.132,0.503
				c-0.864,0.336-1.561,0.828-2.088,1.477s-0.913,1.434-1.152,2.357c-0.24,0.925-0.36,1.987-0.36,3.185v8.28h-3.06v-18.611H411.789z
				"/>
			<path id="path3376" inkscape:connector-curvature="0" fill="#FFFFFF" d="M433.533,216.597c-1.393,1.055-3.146,1.584-5.256,1.584
				c-1.488,0-2.778-0.24-3.87-0.721c-1.092-0.477-2.01-1.152-2.754-2.014c-0.744-0.865-1.302-1.897-1.674-3.098
				c-0.371-1.201-0.581-2.507-0.629-3.924c0-1.417,0.216-2.712,0.648-3.887c0.432-1.177,1.038-2.196,1.818-3.061
				c0.778-0.863,1.704-1.535,2.772-2.016c1.066-0.477,2.237-0.719,3.51-0.719c1.656,0,3.03,0.343,4.122,1.028
				c1.092,0.683,1.968,1.554,2.628,2.609c0.66,1.055,1.116,2.207,1.368,3.455c0.253,1.248,0.354,2.438,0.306,3.564h-13.931
				c-0.025,0.818,0.072,1.591,0.288,2.323c0.216,0.732,0.563,1.381,1.044,1.944c0.48,0.563,1.093,1.013,1.837,1.351
				c0.744,0.334,1.619,0.503,2.628,0.503c1.296,0,2.358-0.3,3.186-0.901c0.827-0.599,1.373-1.511,1.638-2.736h3.024
				C435.823,213.968,434.923,215.539,433.533,216.597L433.533,216.597z M432.794,204.643c-0.276-0.646-0.648-1.205-1.115-1.674
				c-0.469-0.467-1.021-0.839-1.657-1.115c-0.636-0.276-1.338-0.413-2.105-0.413c-0.792,0-1.506,0.137-2.143,0.413
				c-0.636,0.276-1.183,0.653-1.638,1.132c-0.456,0.482-0.816,1.04-1.08,1.674c-0.264,0.638-0.42,1.314-0.468,2.036h10.692
				C433.231,205.975,433.069,205.292,432.794,204.643L432.794,204.643z"/>
			<path id="path3378" inkscape:connector-curvature="0" fill="#FFFFFF" d="M456.176,217.712c-0.529,0.31-1.26,0.469-2.196,0.469
				c-0.792,0-1.421-0.223-1.89-0.668c-0.468-0.443-0.702-1.169-0.702-2.177c-0.839,1.008-1.817,1.734-2.934,2.177
				c-1.115,0.445-2.322,0.668-3.618,0.668c-0.84,0-1.638-0.098-2.394-0.289c-0.756-0.19-1.41-0.492-1.962-0.901
				c-0.553-0.407-0.99-0.94-1.314-1.601c-0.323-0.659-0.486-1.458-0.486-2.393c0-1.057,0.181-1.92,0.54-2.592
				c0.36-0.672,0.833-1.218,1.422-1.638c0.588-0.42,1.26-0.739,2.015-0.955c0.756-0.214,1.529-0.396,2.322-0.539
				c0.84-0.167,1.639-0.293,2.394-0.377c0.756-0.086,1.422-0.206,1.998-0.362c0.576-0.156,1.032-0.383,1.368-0.683
				c0.336-0.3,0.504-0.739,0.504-1.314c0-0.672-0.126-1.212-0.378-1.62c-0.253-0.409-0.576-0.719-0.972-0.935
				c-0.396-0.216-0.84-0.36-1.333-0.432c-0.492-0.073-0.979-0.107-1.458-0.107c-1.296,0-2.376,0.246-3.24,0.736
				c-0.864,0.492-1.333,1.421-1.404,2.791h-3.06c0.048-1.152,0.288-2.124,0.72-2.916c0.431-0.792,1.008-1.434,1.728-1.927
				c0.72-0.492,1.542-0.848,2.466-1.062c0.924-0.216,1.914-0.325,2.97-0.325c0.84,0,1.674,0.06,2.502,0.18
				c0.827,0.12,1.578,0.366,2.25,0.736c0.672,0.372,1.212,0.895,1.619,1.563c0.409,0.672,0.612,1.546,0.612,2.622v9.556
				c0,0.719,0.042,1.246,0.126,1.582c0.083,0.334,0.366,0.501,0.846,0.501c0.264,0,0.576-0.047,0.937-0.143V217.712L456.176,217.712
				z M451.207,208.171c-0.384,0.287-0.887,0.497-1.511,0.627c-0.625,0.133-1.278,0.24-1.962,0.323
				c-0.685,0.083-1.375,0.18-2.07,0.287c-0.697,0.107-1.321,0.28-1.872,0.518c-0.553,0.24-1.003,0.578-1.351,1.021
				c-0.348,0.443-0.521,1.047-0.521,1.809c0,0.501,0.102,0.925,0.305,1.272c0.204,0.347,0.469,0.627,0.792,0.843
				c0.324,0.214,0.702,0.368,1.135,0.464c0.432,0.096,0.888,0.143,1.368,0.143c1.008,0,1.872-0.137,2.592-0.411
				c0.719-0.276,1.308-0.623,1.764-1.04c0.456-0.42,0.792-0.873,1.008-1.361c0.215-0.49,0.323-0.95,0.323-1.379V208.171z"/>
			<path id="path3380" inkscape:connector-curvature="0" fill="#FFFFFF" d="M466.975,199.172v2.702h-3.708v11.555
				c0,0.36,0.03,0.646,0.09,0.863s0.173,0.383,0.341,0.505c0.168,0.12,0.402,0.197,0.702,0.233c0.301,0.036,0.689,0.054,1.17,0.054
				h1.404v2.699h-2.34c-0.792,0-1.471-0.051-2.034-0.161c-0.564-0.109-1.021-0.306-1.369-0.593
				c-0.348-0.289-0.606-0.698-0.774-1.224c-0.168-0.529-0.252-1.224-0.252-2.089v-11.842h-3.168v-2.702h3.168v-5.579h3.06v5.579
				H466.975z"/>
			<path id="path3382" inkscape:connector-curvature="0" fill="#FFFFFF" d="M483.535,216.597c-1.393,1.055-3.145,1.584-5.256,1.584
				c-1.488,0-2.778-0.24-3.869-0.721c-1.093-0.477-2.01-1.152-2.754-2.014c-0.744-0.865-1.303-1.897-1.674-3.098
				c-0.372-1.201-0.582-2.507-0.63-3.924c0-1.417,0.216-2.712,0.648-3.887c0.432-1.177,1.038-2.196,1.818-3.061
				c0.779-0.863,1.704-1.535,2.772-2.016c1.067-0.477,2.237-0.719,3.51-0.719c1.656,0,3.03,0.343,4.122,1.028
				c1.093,0.683,1.969,1.554,2.63,2.609c0.658,1.055,1.114,2.207,1.367,3.455c0.252,1.248,0.354,2.438,0.307,3.564h-13.933
				c-0.023,0.818,0.072,1.591,0.288,2.323c0.216,0.732,0.563,1.381,1.045,1.944c0.478,0.563,1.092,1.013,1.836,1.351
				c0.744,0.334,1.619,0.503,2.628,0.503c1.296,0,2.358-0.3,3.186-0.901c0.827-0.599,1.374-1.511,1.638-2.736h3.024
				C485.825,213.968,484.927,215.539,483.535,216.597z M482.796,204.643c-0.274-0.646-0.646-1.205-1.114-1.674
				c-0.469-0.467-1.021-0.839-1.656-1.115c-0.637-0.276-1.339-0.413-2.106-0.413c-0.792,0-1.506,0.137-2.142,0.413
				s-1.184,0.653-1.639,1.132c-0.456,0.482-0.816,1.04-1.08,1.674c-0.263,0.638-0.42,1.314-0.468,2.036h10.693
				c-0.05-0.721-0.213-1.404-0.487-2.053H482.796z"/>
			<path id="path3384" inkscape:connector-curvature="0" fill="#FFFFFF" d="M510.822,202.413c-0.768-0.649-1.8-0.972-3.095-0.972
				c-1.105,0-2.029,0.206-2.772,0.612c-0.743,0.407-1.338,0.946-1.783,1.618c-0.441,0.672-0.762,1.447-0.953,2.323
				c-0.191,0.876-0.289,1.783-0.289,2.717c0,0.865,0.103,1.704,0.308,2.522c0.201,0.816,0.52,1.541,0.953,2.177
				c0.435,0.636,0.995,1.145,1.693,1.531c0.694,0.385,1.522,0.576,2.483,0.576c1.511,0,2.693-0.396,3.545-1.188
				s1.374-1.907,1.567-3.348h3.13c-0.334,2.303-1.192,4.08-2.573,5.328c-1.379,1.248-3.258,1.873-5.634,1.873
				c-1.415,0-2.669-0.231-3.761-0.685c-1.092-0.454-2.004-1.105-2.736-1.944c-0.732-0.839-1.284-1.841-1.655-3.005
				c-0.372-1.165-0.561-2.443-0.561-3.836c0-1.391,0.182-2.693,0.542-3.905c0.357-1.212,0.906-2.269,1.638-3.168
				c0.732-0.899,1.65-1.606,2.755-2.124c1.102-0.516,2.387-0.775,3.851-0.775c1.057,0,2.047,0.126,2.971,0.379
				c0.925,0.25,1.738,0.642,2.449,1.171c0.706,0.527,1.289,1.192,1.745,1.997c0.456,0.803,0.743,1.757,0.863,2.862h-3.168
				C512.093,203.971,511.588,203.059,510.822,202.413z"/>
			<path id="path3386" inkscape:connector-curvature="0" fill="#FFFFFF" d="M522.09,192.08v9.828h0.073
				c0.24-0.576,0.574-1.062,1.006-1.458c0.432-0.396,0.918-0.719,1.46-0.972c0.539-0.25,1.105-0.439,1.691-0.559
				s1.156-0.18,1.71-0.18c1.222,0,2.243,0.169,3.059,0.505c0.816,0.334,1.477,0.805,1.98,1.404s0.858,1.314,1.062,2.141
				c0.203,0.828,0.306,1.747,0.306,2.755v12.238h-3.061v-12.6c0-1.152-0.336-2.061-1.006-2.736
				c-0.672-0.672-1.597-1.006-2.772-1.006c-0.938,0-1.747,0.143-2.432,0.432c-0.683,0.287-1.252,0.694-1.708,1.222
				c-0.456,0.529-0.799,1.145-1.025,1.854c-0.231,0.709-0.343,1.483-0.343,2.323v10.511h-3.061V192.08H522.09z"/>
			<path id="path3388" inkscape:connector-curvature="0" fill="#FFFFFF" d="M552.222,216.597c-1.391,1.055-3.145,1.584-5.255,1.584
				c-1.488,0-2.781-0.24-3.872-0.721c-1.092-0.477-2.008-1.152-2.753-2.014c-0.745-0.865-1.302-1.897-1.674-3.098
				s-0.582-2.507-0.629-3.924c0-1.417,0.214-2.712,0.646-3.887c0.432-1.177,1.04-2.196,1.82-3.061
				c0.777-0.863,1.704-1.535,2.77-2.016c1.066-0.477,2.237-0.719,3.511-0.719c1.657,0,3.031,0.343,4.123,1.028
				c1.092,0.683,1.967,1.554,2.627,2.609c0.659,1.055,1.115,2.207,1.368,3.455c0.253,1.248,0.355,2.438,0.306,3.564h-13.931
				c-0.024,0.818,0.071,1.591,0.289,2.323c0.214,0.732,0.561,1.381,1.042,1.944c0.48,0.563,1.092,1.013,1.835,1.351
				c0.745,0.334,1.623,0.503,2.629,0.503c1.297,0,2.359-0.3,3.185-0.901c0.831-0.599,1.374-1.511,1.64-2.736h3.023
				C554.513,213.968,553.614,215.539,552.222,216.597L552.222,216.597z M551.484,204.643c-0.276-0.646-0.649-1.205-1.115-1.674
				c-0.469-0.467-1.023-0.839-1.657-1.115c-0.636-0.276-1.338-0.413-2.106-0.413c-0.792,0-1.507,0.137-2.141,0.413
				c-0.638,0.276-1.184,0.653-1.64,1.132c-0.454,0.482-0.813,1.04-1.079,1.674c-0.265,0.638-0.42,1.314-0.467,2.036h10.691
				C551.922,205.975,551.76,205.292,551.484,204.643L551.484,204.643z"/>
			<path id="path3390" inkscape:connector-curvature="0" fill="#FFFFFF" d="M561.258,199.172v2.736h0.071
				c1.391-2.111,3.397-3.168,6.013-3.168c1.152,0,2.194,0.24,3.132,0.719c0.938,0.482,1.597,1.297,1.978,2.449
				c0.625-1.008,1.447-1.787,2.468-2.34c1.021-0.552,2.143-0.828,3.365-0.828c0.935,0,1.783,0.103,2.539,0.306
				s1.402,0.522,1.942,0.955c0.542,0.43,0.961,0.991,1.263,1.674c0.3,0.683,0.449,1.505,0.449,2.466v13.642h-3.061v-12.202
				c0-0.578-0.049-1.117-0.146-1.62c-0.094-0.503-0.274-0.942-0.539-1.314c-0.266-0.372-0.629-0.666-1.098-0.882
				c-0.469-0.216-1.073-0.323-1.818-0.323c-1.511,0-2.702,0.432-3.562,1.295c-0.865,0.863-1.297,2.016-1.297,3.457v11.59h-3.061
				v-12.202c0-0.602-0.053-1.152-0.161-1.657c-0.109-0.505-0.295-0.942-0.559-1.314c-0.266-0.372-0.619-0.659-1.062-0.865
				c-0.445-0.203-1.015-0.304-1.71-0.304c-0.888,0-1.65,0.18-2.286,0.539c-0.636,0.36-1.152,0.792-1.548,1.295
				c-0.396,0.503-0.685,1.025-0.865,1.567c-0.18,0.539-0.27,0.989-0.27,1.351v11.59h-3.061v-18.611H561.258z"/>
			<path id="path3392" inkscape:connector-curvature="0" fill="#FFFFFF" d="M589.264,195.824v-3.744h3.061v3.744H589.264z
				 M592.325,199.172v18.611h-3.061v-18.611H592.325z"/>
			<path id="path3394" inkscape:connector-curvature="0" fill="#FFFFFF" d="M599.417,213.625c0.287,0.467,0.666,0.839,1.132,1.115
				c0.471,0.276,0.998,0.473,1.584,0.593c0.589,0.122,1.194,0.18,1.82,0.18c0.479,0,0.985-0.034,1.511-0.107
				c0.527-0.073,1.015-0.203,1.46-0.396c0.441-0.19,0.809-0.473,1.096-0.846c0.289-0.372,0.432-0.846,0.432-1.421
				c0-0.792-0.3-1.391-0.899-1.8c-0.599-0.409-1.351-0.739-2.252-0.991c-0.899-0.253-1.875-0.48-2.933-0.683
				c-1.057-0.203-2.034-0.492-2.933-0.865c-0.903-0.37-1.653-0.893-2.252-1.565s-0.899-1.61-0.899-2.809
				c0-0.938,0.21-1.74,0.629-2.413c0.42-0.67,0.959-1.218,1.62-1.638c0.661-0.42,1.404-0.732,2.233-0.935
				c0.826-0.203,1.648-0.306,2.466-0.306c1.055,0,2.027,0.09,2.916,0.27c0.886,0.18,1.674,0.492,2.359,0.935
				c0.683,0.443,1.229,1.045,1.635,1.8c0.407,0.756,0.649,1.698,0.721,2.826h-3.059c-0.051-0.599-0.205-1.098-0.469-1.494
				c-0.266-0.396-0.602-0.713-1.008-0.955c-0.409-0.238-0.86-0.413-1.351-0.52c-0.492-0.109-0.991-0.163-1.494-0.163
				c-0.456,0-0.918,0.036-1.385,0.109c-0.471,0.071-0.895,0.197-1.28,0.377c-0.383,0.18-0.694,0.42-0.938,0.719
				c-0.24,0.302-0.358,0.691-0.358,1.171c0,0.529,0.186,0.965,0.559,1.314s0.848,0.636,1.421,0.863
				c0.578,0.231,1.224,0.42,1.944,0.578c0.721,0.154,1.439,0.317,2.16,0.484c0.769,0.169,1.518,0.375,2.25,0.612
				c0.732,0.24,1.381,0.559,1.944,0.955c0.565,0.396,1.019,0.895,1.37,1.494c0.347,0.599,0.518,1.344,0.518,2.231
				c0,1.13-0.231,2.066-0.7,2.809c-0.469,0.745-1.081,1.344-1.837,1.8c-0.756,0.458-1.608,0.775-2.556,0.955
				c-0.948,0.18-1.89,0.27-2.826,0.27c-1.032,0-2.016-0.109-2.952-0.323c-0.938-0.216-1.764-0.569-2.483-1.062
				c-0.721-0.492-1.297-1.139-1.73-1.944c-0.432-0.805-0.672-1.783-0.719-2.935h3.061
				C598.972,212.587,599.128,213.159,599.417,213.625L599.417,213.625z"/>
			<path id="path3396" inkscape:connector-curvature="0" fill="#FFFFFF" d="M623.031,199.172v2.702h-3.708v11.555
				c0,0.36,0.03,0.646,0.092,0.863c0.058,0.216,0.173,0.383,0.342,0.505c0.169,0.12,0.4,0.197,0.7,0.233
				c0.302,0.036,0.689,0.054,1.171,0.054h1.402v2.699h-2.338c-0.792,0-1.473-0.051-2.034-0.161c-0.565-0.109-1.021-0.306-1.37-0.593
				c-0.347-0.289-0.604-0.698-0.773-1.224c-0.169-0.529-0.25-1.224-0.25-2.089v-11.842h-3.168v-2.702h3.168v-5.579h3.059v5.579
				H623.031L623.031,199.172z"/>
			<path id="path3398" inkscape:connector-curvature="0" fill="#FFFFFF" d="M629.188,199.172v3.924h0.073
				c0.741-1.511,1.655-2.627,2.734-3.348c1.081-0.719,2.451-1.055,4.104-1.008v3.241c-1.224,0-2.267,0.167-3.13,0.503
				c-0.865,0.336-1.563,0.828-2.089,1.477c-0.529,0.649-0.912,1.434-1.152,2.357c-0.24,0.925-0.36,1.987-0.36,3.185v8.28h-3.061
				v-18.611H629.188z"/>
			<path id="path3400" inkscape:connector-curvature="0" fill="#FFFFFF" d="M645.713,220.268c-0.36,0.912-0.715,1.68-1.062,2.303
				c-0.349,0.625-0.732,1.135-1.152,1.531c-0.422,0.396-0.891,0.685-1.404,0.865c-0.518,0.18-1.109,0.27-1.781,0.27
				c-0.36,0-0.721-0.026-1.081-0.073s-0.709-0.133-1.045-0.253v-2.809c0.266,0.12,0.569,0.223,0.918,0.308
				c0.347,0.083,0.642,0.124,0.882,0.124c0.625,0,1.147-0.15,1.567-0.45c0.42-0.3,0.736-0.726,0.955-1.278l1.259-3.132
				l-7.381-18.504h3.457l5.435,15.229h0.073l5.219-15.229h3.241L645.713,220.268L645.713,220.268z"/>
		</g>
	</g>
</g>
<g id="g3087">
	<g id="g3089">
		<g id="g3091">
			<path id="path3093" fill="#FFFFFF" d="M78.133,24.799c0,0,12.373,0,14.856,0c5.453,0,7.944,3.636,7.944,6.959
				c0,2.394-0.92,3.939-3.389,5.376c3.114,1.151,4.807,3.228,4.807,6.431c0,3.831-2.782,7.896-9.342,7.896
				c-3.637,0-14.883,0-14.883,0L78.133,24.799z M86.246,45.441c0,0,3.459,0,5.376,0c1.915,0,2.776-1.369,2.776-2.58
				c0,0.561,0.246-2.209-2.504-2.209c-1.445,0-5.648,0-5.648,0V45.441z M86.265,35.297c0,0,2.502,0,4.32,0
				c1.975,0,2.762-0.92,2.762-2.269c0-0.312-0.097-2.052-2.195-2.052c0.958,0-4.887,0-4.887,0V35.297z"/>
			<path id="path3095" fill="#FFFFFF" d="M110.8,24.799h8.591l9.782,26.632h-8.815l-1.291-3.989h-8.229l-1.094,3.968h-8.75
				L110.8,24.799z M114.746,32.702l-2.268,8.894h4.848L114.746,32.702z"/>
			<path id="path3097" fill="#FFFFFF" d="M142.875,32.719h8.191c0-4.521-3.402-8.718-11.475-8.718
				c-8.855,0-11.598,4.887-11.598,8.464c0,5.768,7.059,7.301,7.276,7.369c1.056,0.332,5.437,1.506,6.528,1.896
				c0.947,0.339,1.854,1.098,1.854,2.111c0,1.557-1.854,2.305-3.397,2.305c-0.99,0-4.322-0.328-4.322-3.859h-8.463
				c0,4.689,3.227,9.938,12.277,9.938c9.987,0,12.078-5.959,12.078-9.126c0-2.586-1.466-5.454-4.847-6.819
				c-2.033-0.821-5.403-1.541-7.097-2.035c-0.854-0.25-3.696-0.826-3.696-2.561c0-2.223,3.664-1.936,3.129-1.936
				C140.973,29.748,142.875,30.68,142.875,32.719z"/>
			<polygon id="polygon3099" fill="#FFFFFF" points="153.216,24.793 173.662,24.793 173.662,31.83 161.387,31.83 161.387,36.521 
				172.332,36.521 172.332,43.246 161.348,43.246 161.348,51.456 153.178,51.456 			"/>
		</g>
		<path id="path3101" fill="#FFFFFF" enable-background="new    " d="M24.804,24.799v26.665h26.665V24.799H24.804z M43.264,43.259
			H33.008V33.003h10.256V43.259z"/>
		<rect id="rect3103" x="59.673" y="33.003" fill="#FFFFFF" enable-background="new    " width="10.256" height="10.256"/>
	</g>
</g>
</svg>
